<svg xmlns="http://www.w3.org/2000/svg" width="512" height="512"><path d="m42.901-.29 3.26-.02c3.545-.02 7.09-.024 10.636-.026l7.424-.02q7.778-.017 15.554-.015c6.626 0 13.25-.027 19.875-.061 5.112-.022 10.223-.026 15.335-.025q3.662-.005 7.324-.027c3.424-.02 6.848-.014 10.272-.002l3.02-.034c11.935.106 20.918 4.438 29.493 12.485 10.77 11.111 11.783 23.702 12.552 38.405 1.257 23.99 4.197 47.22 11.01 70.345 4.4 14.947 7.907 29.564.344 44.285-1.895 2.75-3.943 5.37-6 8a3374 3374 0 0 0-3.594 4.707l-1.91 2.497a1558 1558 0 0 0-19.385 25.869C152.19 214.138 146.108 222.076 140 230c3.884 8.037 8.077 15.77 12.75 23.375l1.857 3.031c4.813 7.79 9.855 15.303 15.393 22.594l1.298 1.71C185.395 299.19 200.594 316.678 219 331l2.84 2.355C239.973 348.291 260.407 360.793 281 372a221 221 0 0 0 17.375-12.5c7.156-5.627 14.422-11.075 21.776-16.44 4.918-3.599 9.721-7.308 14.474-11.123 10.39-8.251 21.029-13.773 34.648-13.421 8.081 1.05 15.902 3.518 23.744 5.676 23.189 6.282 46.834 10.046 70.862 10.632 14.314.4 26.376 2.846 37.098 13.059 3.94 4.276 6.858 8.72 9.023 14.117l1.033 2.454c1.314 4.819 1.262 9.36 1.258 14.334l.02 3.26c.019 3.55.023 7.1.025 10.651l.02 7.429q.017 7.785.015 15.572c0 6.633.027 13.266.061 19.898.022 5.116.026 10.232.025 15.348q.005 3.666.027 7.332c.02 3.43.014 6.858.002 10.287l.034 3.025c-.108 12.238-4.667 21.602-13.282 30.16-7.94 7.137-16.34 10.563-27.11 10.55-1.118.01-1.118.01-2.26.018-2.435.012-4.87.006-7.306-.006l-2.553-.006c-98.49-.402-195.842-35.996-288.274-106.875a365 365 0 0 0-4.65-3.755c-11.718-9.351-22.38-19.88-33.012-30.428q-2.107-2.087-4.22-4.169a194 194 0 0 1-14.892-16.65c-1.83-2.266-3.732-4.418-5.711-6.554-6.207-6.92-11.697-14.43-17.25-21.875l-1.663-2.226C32.76 242.35.317 146.16-.438 49.687l-.036-2.446C-.654 33.3 1.228 22.533 11 12 20.383 2.68 29.912-.302 42.901-.29"/></svg>